# xmcd
#
# Track frame offsets:
#	150
#	19735
#	36413
#
# Disc length: 839 seconds
#
# Revision: 1
# Processed by: cddbd v1.5.1PL0 Copyright (c) Steve Scherf et al.
# Submitted via: CDex 1.50Beta5
#
DISCID=1e034503
DTITLE=wyolica - ありがとう
DYEAR=2001
DGENRE=Blues
TTITLE0=ありがとう
TTITLE1=ありがとう 〜Ashley lngram ver〜
TTITLE2=シェルター(CELL "F" REMIX)
EXTD=
EXTT0=
EXTT1=
EXTT2=
PLAYORDER=
